<?xml version="1.0" encoding="utf-8"?>
<svg xmlns="http://www.w3.org/2000/svg" version="1.1" viewBox="{{ minx }} {{ miny }} {{ width }} {{ height }}" preserveAspectRatio="xMidYMid">
    <title>Planar sundial</title>
    <desc>Sundial (phi:{{ '{0:0.4f}'.format(phi) }}, D:{{ '{0:0.4f}'.format(D) }}, z:{{ '{0:0.4f}'.format(z) }}, a:{{ '{0:0.4f}'.format(a) }}</desc>
    <!-- Axis -->
    <line x1="{{ minx }}" y1="0" x2="{{ maxx }}" y2="0" style="stroke:rgb(0,127,0);stroke-width:0.1; stroke-dasharray:2 2"/>
    <path d="M{{ maxx-3}} 1 L{{ maxx-1 }} 0 L{{ maxx-3 }} -1 Z" stroke="rgb(0,127,0)" fill="rgb(0,127,0)"/>
    <line x1="0" y1="{{ miny }}" x2="0" y2="{{ maxy }}" style="stroke:rgb(0,127,0);stroke-width:0.1; stroke-dasharray:2 2"/>
    <path d="M1 {{ miny+3 }} L 0 {{ miny+1 }} L-1 {{ miny+3 }} Z" stroke="rgb(0,127,0)" fill="rgb(0,127,0)"/>
    <!-- Hour lines -->
    {% for point in lines_h -%}
    <line x1="{{ '{0[0]:0.4f}'.format(center) }}" y1="{{ '{0[1]:0.4f}'.format(center) }}" x2="{{ '{0[0]:0.4f}'.format(point) }}" y2="{{ '{0[1]:0.4f}'.format(point) }}" style="stroke:rgb(0,0,0);stroke-width:0.2" />
    {% endfor -%}
    <!-- Declinations of the sun -->
    {% for point in lines_d -%}
    <line x1="{{ '{0[0]:0.4f}'.format(point) }}" y1="{{ '{0[1]:0.4f}'.format(point) }}" x2="{{ '{0[2]:0.4f}'.format(point) }}" y2="{{ '{0[3]:0.4f}'.format(point) }}" style="stroke:rgb(127,127,127);stroke-width:0.2" />
    {% endfor -%}
    <!-- Intersection of hour lines and declinations -->
    {% for point in points -%}
    <circle cx="{{ '{0[0]:0.4f}'.format(point) }}" cy="{{ '{0[1]:0.4f}'.format(point) }}" r=".5" fill="black"/>
    {%if show_coord %}
    <text x="{{ point[0] + 2 }}" y="{{ point[1] }}" font-size="3px" fill="black">({{ '{0[0]:0.4f}'.format(point) }},{{ '{0:0.4f}'.format(-point[1]) }})</text>
    {% endif %}
    {% endfor -%}
    <!-- Hour text -->
    {% for point in hours_t -%}
    <text x="{{ '{0[0]:0.4f}'.format(point) }}" y="{{ '{0[1]:0.4f}'.format(point) }}" font-size="5px" fill="black">{{ point[2] }}</text>
    {% endfor -%}
    <!-- Center of the sundial -->
    <circle cx="{{ '{0[0]:0.4f}'.format(center) }}" cy="{{ '{0[1]:0.4f}'.format(center) }}" r="1" fill="red"/>
    <!-- Origin of the coordinate system -->
    <circle cx="0" cy="0" r="1" fill="red"/>
    <!-- Cartouche -->
    <text x="{{ minx + 5 }}" y="{{ miny + 6 }}" font-size="5px" fill="black">Latitude: {{ '{0:0.4f}'.format(phi) }}</text>
    <text x="{{ minx + 5 }}" y="{{ miny + 12}}" font-size="5px" fill="black">Longitude: {{ '{0:0.4f}'.format(l) }}</text>
    <text x="{{ minx + 5 }}" y="{{ miny + 18}}" font-size="5px" fill="black">Gnomonic declination: {{ '{0:0.4f}'.format(D) }}</text>
    <text x="{{ minx + 5 }}" y="{{ miny + 24}}" font-size="5px" fill="black">Zenithal distance to azimuth: {{ '{0:0.4f}'.format(z) }}</text>
    <text x="{{ minx + 5 }}" y="{{ miny + 30}}" font-size="5px" fill="black">Stylus length: {{ '{0:0.4f}'.format(a) }}</text>
</svg>
